<?xml version="1.0" ?><svg id="Layer_1" style="enable-background:new 0 0 128 128;" version="1.1" viewBox="0 0 128 128" xml:space="preserve" xmlns="http://www.w3.org/2000/svg" xmlns:xlink="http://www.w3.org/1999/xlink"><style type="text/css">
	.st0{fill:none;stroke:#1D1952;stroke-width:4;stroke-linecap:round;stroke-miterlimit:10;}
	.st1{fill:#F73959;}
	.st2{opacity:0.5;fill:#C02344;}
	.st3{fill:none;stroke:#FFFFFF;stroke-width:4;stroke-linecap:round;stroke-linejoin:round;stroke-miterlimit:10;}
	.st4{fill:#F95F80;}
	.st5{fill:#FFFFFF;}
	.st6{fill:#1D1952;}
	.st7{fill:#EF8FA9;}
	.st8{fill:none;stroke:#AAAAE5;stroke-width:4;stroke-linecap:round;stroke-miterlimit:10;}
	.st9{fill:#AAAAE5;}
	.st10{fill:#FFCE00;}
	.st11{fill:#8E072B;}
	.st12{opacity:0.5;fill:#F73959;}
	.st13{fill:none;stroke:#C02344;stroke-width:4;stroke-linecap:round;stroke-linejoin:round;stroke-miterlimit:10;}
	.st14{fill:none;stroke:#FFAA00;stroke-width:4;stroke-linecap:round;stroke-linejoin:round;stroke-miterlimit:10;}
	.st15{fill:#FFAA00;}
	.st16{fill:none;stroke:#FFFFFF;stroke-width:3;stroke-linecap:round;stroke-linejoin:round;stroke-miterlimit:10;}
	.st17{fill:none;stroke:#1D1952;stroke-width:3;stroke-linecap:round;stroke-miterlimit:10;}
	.st18{fill:none;stroke:#C02344;stroke-width:6;stroke-linecap:round;stroke-linejoin:round;stroke-miterlimit:10;}
	.st19{fill:none;stroke:#AAAAE5;stroke-width:4;stroke-linecap:round;stroke-linejoin:round;stroke-miterlimit:10;}
	.st20{fill:#E87498;}
	.st21{fill:none;stroke:#1D1952;stroke-width:4;stroke-miterlimit:10;}
	.st22{fill:none;stroke:#FFAA00;stroke-width:4;stroke-linecap:round;stroke-miterlimit:10;}
	.st23{fill:#7A61F7;}
	.st24{fill:none;stroke:#FFCE00;stroke-width:4;stroke-linecap:round;stroke-miterlimit:10;}
</style><g><path class="st15" d="M12.1,22.5L26,16c2.9-1.3,6-2,9.2-2h57.7c3.2,0,6.3,0.7,9.2,2l13.7,6.3L12.1,22.5z"/><path class="st10" d="M108.4,105H79.5c-0.9,0-1.7,0.4-2.3,1l-10.9,11.5c-1.3,1.3-3.4,1.3-4.6,0L50.6,106c-0.6-0.6-1.4-1-2.3-1H19.6   C12.6,105,7,99.4,7,92.4V32.6c0-7,5.6-12.6,12.6-12.6h88.8c7,0,12.6,5.6,12.6,12.6v59.8C121,99.4,115.4,105,108.4,105z"/><path class="st16" d="M19,24c0.2,0,0.4,0,0.6,0"/><path class="st16" d="M11,32.6c0-2.8,1.4-5.4,3.5-6.9"/><path class="st15" d="M64,98.2c-1.2,0-2.4-0.2-3.5-0.7c-4.2-1.7-12.9-6-24.2-15.9c-9-7.9-13.2-19.6-10.9-30.3   c1.9-8.9,8.1-15.6,16.8-18.2c2.6-0.8,5.2-1.2,7.7-1.2c6.3,0,11,2.5,14,4.8c3-2.3,7.7-4.8,14-4.8c2.5,0,5.1,0.4,7.7,1.2   c8.7,2.7,14.9,9.3,16.8,18.2c2.3,10.7-1.8,22.4-10.9,30.3c-11.3,10-20,14.3-24.2,15.9C66.4,97.9,65.2,98.2,64,98.2z"/><path class="st1" d="M84.2,37.9c-13.3-4-20.2,5.8-20.2,5.8s-6.9-9.8-20.2-5.8C27,43,25.2,65,39.7,77.8c11,9.7,19.4,13.7,22.7,15   c1,0.4,2.1,0.4,3.2,0c3.3-1.3,11.7-5.3,22.7-15C102.8,65,101,43,84.2,37.9z"/><path class="st16" d="M49.2,44.5c0.3,0,0.6,0,0.8,0"/><path class="st16" d="M38.3,52.1c0.7-2,2.1-4.1,4.5-5.6"/><path class="st16" d="M81.2,44.9c0.3,0.1,0.5,0.1,0.8,0.2"/><path class="st16" d="M70.2,48.1c0.3-0.4,1.9-2.2,4.7-3.1"/><path class="st2" d="M96.5,48.8C96.2,55.7,93,63,86.7,68.6c-1.7,1.5-3.4,2.9-5,4.2c-11.3,8.9-27.3,8.9-38.6,0   c-1.6-1.3-3.3-2.7-5-4.2c-3.9-3.4-6.6-7.5-8.2-11.8c-0.1,7.3,3.1,15.1,9.8,21c11,9.7,19.4,13.7,22.7,15c1,0.4,2.1,0.4,3.2,0   c3.3-1.3,11.7-5.3,22.7-15C97.5,69.6,100.1,57.7,96.5,48.8z"/><path class="st17" d="M48.1,63.5c0,0,1-5.8,5.5-5.8s3.5,5.8,3.5,5.8"/><path class="st17" d="M69.8,63.5c0,0,1-5.8,5.5-5.8s3.5,5.8,3.5,5.8"/><path class="st6" d="M68,71c1,0,1.7,0.9,1.4,1.9c-0.7,2.2-2.3,5.6-5.9,5.6c-3.7,0-4.8-3.6-5.1-5.7c-0.1-0.9,0.5-1.7,1.4-1.7H68z"/></g></svg>